<svg xmlns="http://www.w3.org/2000/svg" xmlns:xlink="http://www.w3.org/1999/xlink" viewBox="0,0,256,256" width="30px" height="30px" fill-rule="nonzero"><g fill="#ababab" fill-rule="nonzero" stroke="none" stroke-width="1" stroke-linecap="butt" stroke-linejoin="miter" stroke-miterlimit="10" stroke-dasharray="" stroke-dashoffset="0" font-family="none" font-weight="none" font-size="none" text-anchor="none" style="mix-blend-mode: normal"><g transform="scale(8.53333,8.53333)"><path d="M19.496,4l-3.496,0.008v21.992h3.496c3.035,0 5.504,-2.585 5.504,-5.762v-9.887c0,-3.977 -2.057,-6.351 -5.504,-6.351zM20.5,20c-1.379,0 -2.5,-1.121 -2.5,-2.5c0,-1.379 1.121,-2.5 2.5,-2.5c1.379,0 2.5,1.121 2.5,2.5c0,1.379 -1.121,2.5 -2.5,2.5zM10.504,26l3.496,-0.008v-21.992h-3.496c-3.035,0 -5.504,2.585 -5.504,5.762v9.887c0,3.977 2.057,6.351 5.504,6.351zM9.5,9c1.379,0 2.5,1.121 2.5,2.5c0,1.379 -1.121,2.5 -2.5,2.5c-1.379,0 -2.5,-1.121 -2.5,-2.5c0,-1.379 1.121,-2.5 2.5,-2.5z"></path></g></g></svg>