<svg xmlns="http://www.w3.org/2000/svg" xmlns:xlink="http://www.w3.org/1999/xlink" viewBox="0,0,256,256" width="30px" height="30px" fill-rule="nonzero"><g fill="#ababab" fill-rule="nonzero" stroke="none" stroke-width="1" stroke-linecap="butt" stroke-linejoin="miter" stroke-miterlimit="10" stroke-dasharray="" stroke-dashoffset="0" font-family="none" font-weight="none" font-size="none" text-anchor="none" style="mix-blend-mode: normal"><g transform="scale(8.53333,8.53333)"><path d="M15.06055,2c-7.19,0 -12.06055,8.258 -12.06055,11c0,1.17177 0.75887,2.06435 1.61133,2.7168c-0.07084,0.08581 -0.14452,0.17072 -0.19727,0.26563c-0.3096,0.5571 -0.41406,1.20876 -0.41406,2.02539c0,1.82269 1.00004,2.90691 2.10938,3.4668c0.14949,1.83806 0.94936,3.15022 1.94141,3.82031c1.08859,0.7353 2.25947,0.99292 2.54492,1.14844c1.09106,0.59377 2.09635,1.55664 4.4043,1.55664c2.30795,0 3.31323,-0.96287 4.4043,-1.55664c0.28545,-0.15552 1.45633,-0.41314 2.54492,-1.14844c0.99205,-0.67009 1.79191,-1.98225 1.94141,-3.82031c1.10934,-0.55988 2.10938,-1.64411 2.10938,-3.4668c0,-0.81663 -0.10447,-1.46829 -0.41406,-2.02539c-0.03761,-0.06768 -0.09354,-0.12619 -0.14063,-0.18945c0.82889,-0.62988 1.55469,-1.52504 1.55469,-2.79297c0,-2.742 -4.82145,-11 -11.93945,-11zM16.41406,3.98828l1.91992,3.30859l-1.1875,0.69336l-0.94336,-2.66797l-1.15625,1.25391l-1.2793,-1.2793l-0.91406,2.63867c0,0 -1.15555,-0.55867 -1.18555,-0.63867c-0.031,-0.08 1.94726,-3.28125 1.94726,-3.28125l1.36914,1.25391zM15,11c2.24532,0 4.09003,0.58148 5.33398,1.25977c0.13111,0.07149 0.22653,0.14388 0.34375,0.2168c-1.40983,0.25457 -3.39857,0.52344 -5.67773,0.52344c-2.28161,0 -4.27164,-0.26863 -5.68164,-0.52344c0.11874,-0.07376 0.21479,-0.14845 0.34766,-0.2207c1.24404,-0.67655 3.08819,-1.25586 5.33398,-1.25586zM8,14.25195c1.43764,0.30724 3.96109,0.74805 7,0.74805c3.03891,0 5.56236,-0.44081 7,-0.74805v3.21094l1.27344,-0.36133c0.17449,-0.04943 0.36897,-0.06753 0.57422,-0.08008c0.05323,0.11495 0.15234,0.41265 0.15234,0.98633c0,1.48172 -0.62768,1.81999 -1.2168,1.95117l-0.7832,0.17383v0.86719c0,1.62825 -0.50601,2.18827 -1.16992,2.63672c-0.66391,0.44845 -1.53027,0.5863 -2.38281,1.05078c-1.39694,0.76023 -1.62922,1.3125 -3.44727,1.3125c-1.81805,0 -2.05033,-0.55227 -3.44727,-1.3125c-0.85254,-0.46448 -1.7189,-0.60233 -2.38281,-1.05078c-0.66391,-0.44845 -1.16992,-1.00847 -1.16992,-2.63672v-0.86719l-0.7832,-0.17383c-0.58911,-0.13118 -1.2168,-0.46945 -1.2168,-1.95117c0,-0.57368 0.09911,-0.87138 0.15234,-0.98633c0.20525,0.01255 0.39973,0.03065 0.57422,0.08008l1.27344,0.36133zM12,16c-0.55228,0 -1,0.67157 -1,1.5c0,0.82843 0.44772,1.5 1,1.5c0.55228,0 1,-0.67157 1,-1.5c0,-0.82843 -0.44772,-1.5 -1,-1.5zM18,16c-0.55228,0 -1,0.67157 -1,1.5c0,0.82843 0.44772,1.5 1,1.5c0.55228,0 1,-0.67157 1,-1.5c0,-0.82843 -0.44772,-1.5 -1,-1.5zM9.36328,18c0,0 -0.36328,0.32634 -0.36328,1.77734c0,1.709 1.1582,1.79492 1.1582,1.79492c0,0 0.12838,1.65625 1.35938,1.65625c0.532,0 0.83986,-0.26216 0.88086,-0.28516c0.069,0.084 0.62475,1.05664 1.46875,1.05664c0.656,0 1.11914,-0.46875 1.11914,-0.46875c0,0 0.51194,0.44336 1.21094,0.44336c0.794,0 1.4043,-1.01367 1.4043,-1.01367c0,0 0.31402,0.26562 0.91602,0.26562c0.602,0 1.19666,-0.49983 1.34766,-1.67383c0.489,0 1.13281,-0.75356 1.13281,-1.72656c0,-1.458 -0.34766,-1.80859 -0.34766,-1.80859c-0.364,0.616 -1.57078,1.28936 -2.67578,1.69336c-0.13,1.281 -1.40461,2.28906 -2.97461,2.28906c-1.572,0 -2.84661,-1.01097 -2.97461,-2.29297c-1.717,-0.637 -2.66211,-1.70703 -2.66211,-1.70703z"></path></g></g></svg>